<mxfile host="app.diagrams.net" modified="2021-05-13T02:27:41.667Z" agent="5.0 (X11)" etag="9vW3SVzsIgHVdipKXvwt" version="14.6.12" type="github">
  <diagram id="lnP5_x3WHc8F7bBJ7GBY" name="Page-1">
    <mxGraphModel dx="1139" dy="634" grid="0" gridSize="10" guides="1" tooltips="1" connect="1" arrows="1" fold="1" page="1" pageScale="1" pageWidth="850" pageHeight="1100" background="#ffffff" math="0" shadow="0">
      <root>
        <mxCell id="0" />
        <mxCell id="1" parent="0" />
        <mxCell id="ej8n5WV3FJ-Urs8y3LaV-1" style="edgeStyle=orthogonalEdgeStyle;rounded=0;orthogonalLoop=1;jettySize=auto;html=1;entryX=0.5;entryY=1;entryDx=0;entryDy=0;exitX=1;exitY=0.25;exitDx=0;exitDy=0;" parent="1" source="Q-wMo99p0fWlmq5nX4fM-3" target="ej8n5WV3FJ-Urs8y3LaV-25" edge="1">
          <mxGeometry relative="1" as="geometry">
            <mxPoint x="566.04" y="481.03999999999996" as="sourcePoint" />
            <Array as="points">
              <mxPoint x="652" y="483" />
              <mxPoint x="778" y="483" />
            </Array>
          </mxGeometry>
        </mxCell>
        <mxCell id="ej8n5WV3FJ-Urs8y3LaV-2" value="Thẻ học sinh" style="edgeLabel;html=1;align=center;verticalAlign=middle;resizable=0;points=[];" parent="ej8n5WV3FJ-Urs8y3LaV-1" vertex="1" connectable="0">
          <mxGeometry x="0.0501" y="-1" relative="1" as="geometry">
            <mxPoint x="-62" y="-4" as="offset" />
          </mxGeometry>
        </mxCell>
        <mxCell id="ej8n5WV3FJ-Urs8y3LaV-3" style="edgeStyle=orthogonalEdgeStyle;rounded=0;orthogonalLoop=1;jettySize=auto;html=1;entryX=0.942;entryY=1.017;entryDx=0;entryDy=0;exitX=1;exitY=0.75;exitDx=0;exitDy=0;entryPerimeter=0;" parent="1" source="Q-wMo99p0fWlmq5nX4fM-3" target="ej8n5WV3FJ-Urs8y3LaV-25" edge="1">
          <mxGeometry relative="1" as="geometry">
            <Array as="points">
              <mxPoint x="831" y="545" />
            </Array>
            <mxPoint x="551.04" y="485.03999999999996" as="sourcePoint" />
          </mxGeometry>
        </mxCell>
        <mxCell id="ej8n5WV3FJ-Urs8y3LaV-4" value="Lịch thi học kì (MB3)" style="edgeLabel;html=1;align=center;verticalAlign=middle;resizable=0;points=[];" parent="ej8n5WV3FJ-Urs8y3LaV-3" vertex="1" connectable="0">
          <mxGeometry x="-0.1368" y="-2" relative="1" as="geometry">
            <mxPoint x="-46" y="-2" as="offset" />
          </mxGeometry>
        </mxCell>
        <mxCell id="ej8n5WV3FJ-Urs8y3LaV-5" style="edgeStyle=orthogonalEdgeStyle;rounded=0;orthogonalLoop=1;jettySize=auto;html=1;entryX=0.75;entryY=0;entryDx=0;entryDy=0;" parent="1" source="Q-wMo99p0fWlmq5nX4fM-2" target="ej8n5WV3FJ-Urs8y3LaV-25" edge="1">
          <mxGeometry relative="1" as="geometry">
            <Array as="points">
              <mxPoint x="395" y="140" />
              <mxPoint x="808" y="140" />
            </Array>
            <mxPoint x="401" y="221" as="sourcePoint" />
          </mxGeometry>
        </mxCell>
        <mxCell id="ej8n5WV3FJ-Urs8y3LaV-6" value="Kết quả học tập" style="edgeLabel;html=1;align=center;verticalAlign=middle;resizable=0;points=[];" parent="ej8n5WV3FJ-Urs8y3LaV-5" vertex="1" connectable="0">
          <mxGeometry x="-0.0889" y="-1" relative="1" as="geometry">
            <mxPoint x="-104" y="-1" as="offset" />
          </mxGeometry>
        </mxCell>
        <mxCell id="ej8n5WV3FJ-Urs8y3LaV-7" style="edgeStyle=orthogonalEdgeStyle;rounded=0;orthogonalLoop=1;jettySize=auto;html=1;entryX=0.75;entryY=0;entryDx=0;entryDy=0;labelPosition=center;verticalLabelPosition=middle;align=center;verticalAlign=middle;exitX=0;exitY=0;exitDx=0;exitDy=0;" parent="1" target="ej8n5WV3FJ-Urs8y3LaV-22" edge="1">
          <mxGeometry relative="1" as="geometry">
            <Array as="points">
              <mxPoint x="353" y="169" />
              <mxPoint x="125" y="169" />
            </Array>
            <mxPoint x="352.57359312880726" y="222.7157287525381" as="sourcePoint" />
          </mxGeometry>
        </mxCell>
        <mxCell id="ej8n5WV3FJ-Urs8y3LaV-8" value="&lt;div align=&quot;right&quot;&gt;Báo cáo thống kê kết quả học tập&lt;br&gt;&lt;/div&gt;&amp;nbsp;(MB8)" style="edgeLabel;html=1;align=center;verticalAlign=middle;resizable=0;points=[];" parent="ej8n5WV3FJ-Urs8y3LaV-7" vertex="1" connectable="0">
          <mxGeometry x="0.2477" relative="1" as="geometry">
            <mxPoint x="97.68" y="-1" as="offset" />
          </mxGeometry>
        </mxCell>
        <mxCell id="ej8n5WV3FJ-Urs8y3LaV-9" style="edgeStyle=orthogonalEdgeStyle;rounded=0;orthogonalLoop=1;jettySize=auto;html=1;entryX=0.75;entryY=1;entryDx=0;entryDy=0;align=right;" parent="1" source="Q-wMo99p0fWlmq5nX4fM-6" target="ej8n5WV3FJ-Urs8y3LaV-22" edge="1">
          <mxGeometry relative="1" as="geometry">
            <Array as="points">
              <mxPoint x="125" y="472" />
            </Array>
            <mxPoint x="223.57359312880726" y="464.2842712474617" as="sourcePoint" />
          </mxGeometry>
        </mxCell>
        <mxCell id="ej8n5WV3FJ-Urs8y3LaV-10" value="Yêu cầu sửa điểm" style="edgeLabel;html=1;align=center;verticalAlign=middle;resizable=0;points=[];" parent="ej8n5WV3FJ-Urs8y3LaV-9" vertex="1" connectable="0">
          <mxGeometry x="0.1698" y="-2" relative="1" as="geometry">
            <mxPoint x="39" y="10" as="offset" />
          </mxGeometry>
        </mxCell>
        <mxCell id="ej8n5WV3FJ-Urs8y3LaV-11" style="edgeStyle=orthogonalEdgeStyle;rounded=0;orthogonalLoop=1;jettySize=auto;html=1;entryX=0.5;entryY=1;entryDx=0;entryDy=0;align=right;exitX=0.366;exitY=1;exitDx=0;exitDy=0;exitPerimeter=0;" parent="1" source="Q-wMo99p0fWlmq5nX4fM-3" target="ej8n5WV3FJ-Urs8y3LaV-22" edge="1">
          <mxGeometry relative="1" as="geometry">
            <Array as="points">
              <mxPoint x="524" y="681" />
              <mxPoint x="95" y="681" />
            </Array>
            <mxPoint x="467" y="489" as="sourcePoint" />
            <mxPoint x="213" y="775" as="targetPoint" />
          </mxGeometry>
        </mxCell>
        <mxCell id="ej8n5WV3FJ-Urs8y3LaV-12" value="Danh sách lớp học (MB1)" style="edgeLabel;html=1;align=center;verticalAlign=middle;resizable=0;points=[];" parent="ej8n5WV3FJ-Urs8y3LaV-11" vertex="1" connectable="0">
          <mxGeometry x="-0.0667" relative="1" as="geometry">
            <mxPoint x="112" y="3" as="offset" />
          </mxGeometry>
        </mxCell>
        <mxCell id="ej8n5WV3FJ-Urs8y3LaV-13" style="edgeStyle=orthogonalEdgeStyle;rounded=0;orthogonalLoop=1;jettySize=auto;html=1;entryX=0.25;entryY=1;entryDx=0;entryDy=0;align=right;exitX=0.55;exitY=1;exitDx=0;exitDy=0;exitPerimeter=0;" parent="1" source="Q-wMo99p0fWlmq5nX4fM-3" target="ej8n5WV3FJ-Urs8y3LaV-22" edge="1">
          <mxGeometry relative="1" as="geometry">
            <Array as="points">
              <mxPoint x="561" y="743" />
              <mxPoint x="65" y="743" />
            </Array>
            <mxPoint x="519" y="483.03999999999996" as="sourcePoint" />
            <mxPoint x="273" y="775" as="targetPoint" />
          </mxGeometry>
        </mxCell>
        <mxCell id="ej8n5WV3FJ-Urs8y3LaV-14" value="Lịch thi dự kiến (MB3)" style="edgeLabel;html=1;align=center;verticalAlign=middle;resizable=0;points=[];" parent="ej8n5WV3FJ-Urs8y3LaV-13" vertex="1" connectable="0">
          <mxGeometry x="0.1113" y="-2" relative="1" as="geometry">
            <mxPoint x="165" y="2" as="offset" />
          </mxGeometry>
        </mxCell>
        <mxCell id="ej8n5WV3FJ-Urs8y3LaV-16" style="edgeStyle=orthogonalEdgeStyle;orthogonalLoop=1;jettySize=auto;html=1;exitX=0.625;exitY=1.05;exitDx=0;exitDy=0;rounded=0;fontStyle=0;entryX=0;entryY=0.5;entryDx=0;entryDy=0;exitPerimeter=0;" parent="1" source="ej8n5WV3FJ-Urs8y3LaV-22" target="Q-wMo99p0fWlmq5nX4fM-6" edge="1">
          <mxGeometry relative="1" as="geometry">
            <mxPoint x="266" y="476" as="targetPoint" />
            <Array as="points">
              <mxPoint x="110" y="518" />
            </Array>
          </mxGeometry>
        </mxCell>
        <mxCell id="ej8n5WV3FJ-Urs8y3LaV-17" value="Xác nhận sửa điểm" style="edgeLabel;html=1;align=center;verticalAlign=middle;resizable=0;points=[];" parent="ej8n5WV3FJ-Urs8y3LaV-16" vertex="1" connectable="0">
          <mxGeometry x="-0.1342" y="4" relative="1" as="geometry">
            <mxPoint x="39" y="27" as="offset" />
          </mxGeometry>
        </mxCell>
        <mxCell id="ej8n5WV3FJ-Urs8y3LaV-18" style="edgeStyle=orthogonalEdgeStyle;rounded=0;orthogonalLoop=1;jettySize=auto;html=1;align=right;entryX=0.455;entryY=1.005;entryDx=0;entryDy=0;entryPerimeter=0;exitX=0.408;exitY=0.983;exitDx=0;exitDy=0;exitPerimeter=0;" parent="1" source="ej8n5WV3FJ-Urs8y3LaV-22" target="Q-wMo99p0fWlmq5nX4fM-3" edge="1">
          <mxGeometry relative="1" as="geometry">
            <Array as="points">
              <mxPoint x="84" y="715" />
              <mxPoint x="542" y="715" />
            </Array>
            <mxPoint x="503.03999999999996" y="479.03999999999996" as="targetPoint" />
            <mxPoint x="87" y="435" as="sourcePoint" />
          </mxGeometry>
        </mxCell>
        <mxCell id="ej8n5WV3FJ-Urs8y3LaV-19" value="Danh sách lớp học được phê duyệt" style="edgeLabel;html=1;align=center;verticalAlign=middle;resizable=0;points=[];" parent="ej8n5WV3FJ-Urs8y3LaV-18" vertex="1" connectable="0">
          <mxGeometry x="-0.0755" y="2" relative="1" as="geometry">
            <mxPoint x="145" y="-2" as="offset" />
          </mxGeometry>
        </mxCell>
        <mxCell id="ej8n5WV3FJ-Urs8y3LaV-20" style="edgeStyle=orthogonalEdgeStyle;rounded=0;orthogonalLoop=1;jettySize=auto;html=1;exitX=0.075;exitY=1;exitDx=0;exitDy=0;align=right;entryX=0.693;entryY=0.995;entryDx=0;entryDy=0;entryPerimeter=0;exitPerimeter=0;" parent="1" source="ej8n5WV3FJ-Urs8y3LaV-22" target="Q-wMo99p0fWlmq5nX4fM-3" edge="1">
          <mxGeometry relative="1" as="geometry">
            <Array as="points">
              <mxPoint x="44" y="775" />
              <mxPoint x="590" y="775" />
            </Array>
            <mxPoint x="542.04" y="487.03999999999996" as="targetPoint" />
            <mxPoint x="303" y="775" as="sourcePoint" />
          </mxGeometry>
        </mxCell>
        <mxCell id="ej8n5WV3FJ-Urs8y3LaV-21" value="Lịch thi được xác nhận" style="edgeLabel;html=1;align=center;verticalAlign=middle;resizable=0;points=[];" parent="ej8n5WV3FJ-Urs8y3LaV-20" vertex="1" connectable="0">
          <mxGeometry x="-0.0792" relative="1" as="geometry">
            <mxPoint x="144" as="offset" />
          </mxGeometry>
        </mxCell>
        <mxCell id="JC4yTgZBuulJajV7WOS_-1" style="edgeStyle=orthogonalEdgeStyle;rounded=0;orthogonalLoop=1;jettySize=auto;html=1;exitX=0.5;exitY=0;exitDx=0;exitDy=0;" parent="1" source="ej8n5WV3FJ-Urs8y3LaV-22" target="Q-wMo99p0fWlmq5nX4fM-2" edge="1">
          <mxGeometry relative="1" as="geometry">
            <Array as="points">
              <mxPoint x="95" y="145" />
              <mxPoint x="374" y="145" />
            </Array>
            <mxPoint x="374" y="215" as="targetPoint" />
          </mxGeometry>
        </mxCell>
        <mxCell id="JC4yTgZBuulJajV7WOS_-3" value="Yêu cầu báo cáo kết quả thống kê" style="edgeLabel;html=1;align=center;verticalAlign=middle;resizable=0;points=[];" parent="JC4yTgZBuulJajV7WOS_-1" vertex="1" connectable="0">
          <mxGeometry x="0.0873" relative="1" as="geometry">
            <mxPoint as="offset" />
          </mxGeometry>
        </mxCell>
        <mxCell id="JC4yTgZBuulJajV7WOS_-14" style="edgeStyle=orthogonalEdgeStyle;rounded=0;orthogonalLoop=1;jettySize=auto;html=1;exitX=1;exitY=0.25;exitDx=0;exitDy=0;entryX=0.653;entryY=0.007;entryDx=0;entryDy=0;entryPerimeter=0;" parent="1" source="ej8n5WV3FJ-Urs8y3LaV-22" target="Q-wMo99p0fWlmq5nX4fM-6" edge="1">
          <mxGeometry relative="1" as="geometry">
            <Array as="points">
              <mxPoint x="352" y="338" />
            </Array>
            <mxPoint x="208.4000000000001" y="451.20000000000005" as="targetPoint" />
          </mxGeometry>
        </mxCell>
        <mxCell id="JC4yTgZBuulJajV7WOS_-15" value="Yêu cầu báo cáo điê,r" style="edgeLabel;html=1;align=center;verticalAlign=middle;resizable=0;points=[];" parent="JC4yTgZBuulJajV7WOS_-14" vertex="1" connectable="0">
          <mxGeometry x="0.2867" relative="1" as="geometry">
            <mxPoint x="-87" y="-2" as="offset" />
          </mxGeometry>
        </mxCell>
        <mxCell id="ej8n5WV3FJ-Urs8y3LaV-22" value="BAN GIÁM HIỆU" style="rounded=0;whiteSpace=wrap;html=1;" parent="1" vertex="1">
          <mxGeometry x="35" y="323" width="120" height="60" as="geometry" />
        </mxCell>
        <mxCell id="ej8n5WV3FJ-Urs8y3LaV-23" style="edgeStyle=orthogonalEdgeStyle;rounded=0;orthogonalLoop=1;jettySize=auto;html=1;exitX=0.25;exitY=1;exitDx=0;exitDy=0;entryX=1;entryY=0;entryDx=0;entryDy=0;" parent="1" source="ej8n5WV3FJ-Urs8y3LaV-25" target="Q-wMo99p0fWlmq5nX4fM-3" edge="1">
          <mxGeometry relative="1" as="geometry">
            <Array as="points">
              <mxPoint x="748" y="454" />
              <mxPoint x="652" y="454" />
            </Array>
            <mxPoint x="576.4264068711927" y="472.2842712474617" as="targetPoint" />
          </mxGeometry>
        </mxCell>
        <mxCell id="ej8n5WV3FJ-Urs8y3LaV-24" value="Đăng kí học tập" style="edgeLabel;html=1;align=center;verticalAlign=middle;resizable=0;points=[];" parent="ej8n5WV3FJ-Urs8y3LaV-23" vertex="1" connectable="0">
          <mxGeometry x="-0.0727" y="2" relative="1" as="geometry">
            <mxPoint x="-29" y="-2" as="offset" />
          </mxGeometry>
        </mxCell>
        <mxCell id="ej8n5WV3FJ-Urs8y3LaV-46" style="edgeStyle=orthogonalEdgeStyle;rounded=0;orthogonalLoop=1;jettySize=auto;html=1;exitX=0.25;exitY=0;exitDx=0;exitDy=0;" parent="1" source="ej8n5WV3FJ-Urs8y3LaV-25" target="Q-wMo99p0fWlmq5nX4fM-2" edge="1">
          <mxGeometry relative="1" as="geometry">
            <Array as="points">
              <mxPoint x="748" y="198" />
              <mxPoint x="451" y="198" />
            </Array>
            <mxPoint x="451.03999999999996" y="234.03999999999996" as="targetPoint" />
          </mxGeometry>
        </mxCell>
        <mxCell id="ej8n5WV3FJ-Urs8y3LaV-47" value="Thi học kì" style="edgeLabel;html=1;align=center;verticalAlign=middle;resizable=0;points=[];" parent="ej8n5WV3FJ-Urs8y3LaV-46" vertex="1" connectable="0">
          <mxGeometry x="0.3277" y="2" relative="1" as="geometry">
            <mxPoint as="offset" />
          </mxGeometry>
        </mxCell>
        <mxCell id="JC4yTgZBuulJajV7WOS_-16" style="edgeStyle=orthogonalEdgeStyle;rounded=0;orthogonalLoop=1;jettySize=auto;html=1;exitX=0.75;exitY=1;exitDx=0;exitDy=0;" parent="1" source="ej8n5WV3FJ-Urs8y3LaV-25" edge="1">
          <mxGeometry relative="1" as="geometry">
            <Array as="points">
              <mxPoint x="808" y="521" />
              <mxPoint x="656" y="521" />
            </Array>
            <mxPoint x="656" y="521" as="targetPoint" />
          </mxGeometry>
        </mxCell>
        <mxCell id="JC4yTgZBuulJajV7WOS_-17" value="Yêu cầu licj thi học kì" style="edgeLabel;html=1;align=center;verticalAlign=middle;resizable=0;points=[];" parent="JC4yTgZBuulJajV7WOS_-16" vertex="1" connectable="0">
          <mxGeometry x="0.2282" y="-2" relative="1" as="geometry">
            <mxPoint x="-31" y="3" as="offset" />
          </mxGeometry>
        </mxCell>
        <mxCell id="JC4yTgZBuulJajV7WOS_-19" style="edgeStyle=orthogonalEdgeStyle;rounded=0;orthogonalLoop=1;jettySize=auto;html=1;startArrow=none;" parent="1" target="Q-wMo99p0fWlmq5nX4fM-2" edge="1">
          <mxGeometry relative="1" as="geometry">
            <mxPoint x="777" y="318" as="sourcePoint" />
            <Array as="points">
              <mxPoint x="777" y="167" />
              <mxPoint x="420" y="167" />
            </Array>
            <mxPoint x="420.44000000000005" y="214.20000000000005" as="targetPoint" />
          </mxGeometry>
        </mxCell>
        <mxCell id="JC4yTgZBuulJajV7WOS_-26" value="Tham gia học tập" style="edgeLabel;html=1;align=center;verticalAlign=middle;resizable=0;points=[];" parent="JC4yTgZBuulJajV7WOS_-19" vertex="1" connectable="0">
          <mxGeometry x="0.0919" y="1" relative="1" as="geometry">
            <mxPoint x="-64" y="-3" as="offset" />
          </mxGeometry>
        </mxCell>
        <mxCell id="ej8n5WV3FJ-Urs8y3LaV-25" value="HỌC SINH" style="rounded=0;whiteSpace=wrap;html=1;" parent="1" vertex="1">
          <mxGeometry x="718" y="320" width="120" height="60" as="geometry" />
        </mxCell>
        <mxCell id="ej8n5WV3FJ-Urs8y3LaV-48" style="edgeStyle=orthogonalEdgeStyle;rounded=0;orthogonalLoop=1;jettySize=auto;html=1;exitX=1;exitY=0.25;exitDx=0;exitDy=0;entryX=0.117;entryY=-0.017;entryDx=0;entryDy=0;entryPerimeter=0;" parent="1" source="Q-wMo99p0fWlmq5nX4fM-2" target="ej8n5WV3FJ-Urs8y3LaV-25" edge="1">
          <mxGeometry relative="1" as="geometry">
            <Array as="points">
              <mxPoint x="541" y="234" />
              <mxPoint x="732" y="234" />
            </Array>
            <mxPoint x="455" y="251" as="sourcePoint" />
          </mxGeometry>
        </mxCell>
        <mxCell id="ej8n5WV3FJ-Urs8y3LaV-49" value="Kết quả thi (MB4)" style="edgeLabel;html=1;align=center;verticalAlign=middle;resizable=0;points=[];" parent="ej8n5WV3FJ-Urs8y3LaV-48" vertex="1" connectable="0">
          <mxGeometry x="-0.3992" relative="1" as="geometry">
            <mxPoint x="107" y="-2" as="offset" />
          </mxGeometry>
        </mxCell>
        <mxCell id="ej8n5WV3FJ-Urs8y3LaV-56" style="edgeStyle=orthogonalEdgeStyle;rounded=0;orthogonalLoop=1;jettySize=auto;html=1;exitX=0.351;exitY=1.011;exitDx=0;exitDy=0;entryX=0.936;entryY=-0.014;entryDx=0;entryDy=0;entryPerimeter=0;exitPerimeter=0;" parent="1" source="Q-wMo99p0fWlmq5nX4fM-2" target="Q-wMo99p0fWlmq5nX4fM-6" edge="1">
          <mxGeometry relative="1" as="geometry">
            <Array as="points" />
            <mxPoint x="311" y="311" as="sourcePoint" />
            <mxPoint x="390" y="478" as="targetPoint" />
          </mxGeometry>
        </mxCell>
        <mxCell id="ej8n5WV3FJ-Urs8y3LaV-57" value="Yêu cầu sửa điểm (MB7)" style="edgeLabel;html=1;align=center;verticalAlign=middle;resizable=0;points=[];rotation=90;" parent="ej8n5WV3FJ-Urs8y3LaV-56" vertex="1" connectable="0">
          <mxGeometry x="0.2775" y="-4" relative="1" as="geometry">
            <mxPoint x="6" y="-30" as="offset" />
          </mxGeometry>
        </mxCell>
        <mxCell id="ej8n5WV3FJ-Urs8y3LaV-59" style="edgeStyle=orthogonalEdgeStyle;rounded=0;orthogonalLoop=1;jettySize=auto;html=1;exitX=0.5;exitY=0;exitDx=0;exitDy=0;entryX=1;entryY=0.5;entryDx=0;entryDy=0;" parent="1" source="Q-wMo99p0fWlmq5nX4fM-6" target="ej8n5WV3FJ-Urs8y3LaV-22" edge="1">
          <mxGeometry relative="1" as="geometry">
            <Array as="points">
              <mxPoint x="327" y="447" />
              <mxPoint x="327" y="353" />
            </Array>
            <mxPoint x="223.57359312880726" y="464.2842712474617" as="sourcePoint" />
          </mxGeometry>
        </mxCell>
        <mxCell id="ej8n5WV3FJ-Urs8y3LaV-60" value="Báo cáo điểm (MB4)" style="edgeLabel;html=1;align=center;verticalAlign=middle;resizable=0;points=[];" parent="ej8n5WV3FJ-Urs8y3LaV-59" vertex="1" connectable="0">
          <mxGeometry x="-0.0859" y="2" relative="1" as="geometry">
            <mxPoint x="-46" y="-2" as="offset" />
          </mxGeometry>
        </mxCell>
        <mxCell id="JC4yTgZBuulJajV7WOS_-12" style="edgeStyle=orthogonalEdgeStyle;rounded=0;orthogonalLoop=1;jettySize=auto;html=1;exitX=0.812;exitY=-0.007;exitDx=0;exitDy=0;exitPerimeter=0;entryX=0.223;entryY=1.016;entryDx=0;entryDy=0;entryPerimeter=0;" parent="1" source="Q-wMo99p0fWlmq5nX4fM-6" target="Q-wMo99p0fWlmq5nX4fM-2" edge="1">
          <mxGeometry relative="1" as="geometry">
            <Array as="points" />
            <mxPoint x="357" y="518" as="sourcePoint" />
            <mxPoint x="384" y="300" as="targetPoint" />
          </mxGeometry>
        </mxCell>
        <mxCell id="JC4yTgZBuulJajV7WOS_-13" value="Xác nhận sửa điểm" style="edgeLabel;html=1;align=center;verticalAlign=middle;resizable=0;points=[];rotation=-90;" parent="JC4yTgZBuulJajV7WOS_-12" vertex="1" connectable="0">
          <mxGeometry x="-0.0966" y="1" relative="1" as="geometry">
            <mxPoint as="offset" />
          </mxGeometry>
        </mxCell>
        <mxCell id="Q-wMo99p0fWlmq5nX4fM-15" style="edgeStyle=orthogonalEdgeStyle;rounded=0;orthogonalLoop=1;jettySize=auto;html=1;exitX=0.75;exitY=1;exitDx=0;exitDy=0;entryX=0.2;entryY=0.029;entryDx=0;entryDy=0;entryPerimeter=0;" edge="1" parent="1" source="Q-wMo99p0fWlmq5nX4fM-2" target="Q-wMo99p0fWlmq5nX4fM-3">
          <mxGeometry relative="1" as="geometry" />
        </mxCell>
        <mxCell id="Q-wMo99p0fWlmq5nX4fM-18" value="Yêu cầu lịch thi" style="edgeLabel;html=1;align=center;verticalAlign=middle;resizable=0;points=[];rotation=-90;" vertex="1" connectable="0" parent="Q-wMo99p0fWlmq5nX4fM-15">
          <mxGeometry x="-0.2748" relative="1" as="geometry">
            <mxPoint y="-1" as="offset" />
          </mxGeometry>
        </mxCell>
        <mxCell id="Q-wMo99p0fWlmq5nX4fM-16" style="edgeStyle=orthogonalEdgeStyle;rounded=0;orthogonalLoop=1;jettySize=auto;html=1;exitX=1;exitY=1;exitDx=0;exitDy=0;entryX=0.45;entryY=0.012;entryDx=0;entryDy=0;entryPerimeter=0;" edge="1" parent="1" source="Q-wMo99p0fWlmq5nX4fM-2" target="Q-wMo99p0fWlmq5nX4fM-3">
          <mxGeometry relative="1" as="geometry" />
        </mxCell>
        <mxCell id="Q-wMo99p0fWlmq5nX4fM-17" value="yêu cầu danh sách lớp" style="edgeLabel;html=1;align=center;verticalAlign=middle;resizable=0;points=[];rotation=-90;" vertex="1" connectable="0" parent="Q-wMo99p0fWlmq5nX4fM-16">
          <mxGeometry x="-0.3647" y="2" relative="1" as="geometry">
            <mxPoint y="26" as="offset" />
          </mxGeometry>
        </mxCell>
        <mxCell id="Q-wMo99p0fWlmq5nX4fM-2" value="&lt;div&gt;BP GIÁO VIÊN&lt;/div&gt;&lt;div&gt;&lt;br&gt;&lt;/div&gt;&lt;div&gt;&lt;br&gt;&lt;/div&gt;&lt;div&gt;&lt;br&gt;&lt;/div&gt;&lt;div align=&quot;left&quot;&gt;- Theo dõi, đánh giá quá trình học tập của học sinh, điểm danh số ngày nghỉ.&lt;br&gt;&lt;/div&gt;&lt;div align=&quot;left&quot;&gt;- Cập nhật điểm của học sinh&lt;/div&gt;&lt;div align=&quot;left&quot;&gt;- Đánh giá năng lực phẩm chất, kết quả học tập cho học sinh&lt;/div&gt;&lt;div align=&quot;left&quot;&gt;- Tính điểm theo môn học để đánh giá cuối kì + xếp loại&lt;br&gt;&lt;/div&gt;" style="rounded=0;whiteSpace=wrap;html=1;" vertex="1" parent="1">
          <mxGeometry x="339" y="78" width="202" height="183" as="geometry" />
        </mxCell>
        <mxCell id="Q-wMo99p0fWlmq5nX4fM-11" style="edgeStyle=orthogonalEdgeStyle;rounded=0;orthogonalLoop=1;jettySize=auto;html=1;entryX=0.656;entryY=1.014;entryDx=0;entryDy=0;entryPerimeter=0;exitX=0.106;exitY=0.014;exitDx=0;exitDy=0;exitPerimeter=0;" edge="1" parent="1" source="Q-wMo99p0fWlmq5nX4fM-3" target="Q-wMo99p0fWlmq5nX4fM-2">
          <mxGeometry relative="1" as="geometry">
            <mxPoint x="472" y="439" as="sourcePoint" />
          </mxGeometry>
        </mxCell>
        <mxCell id="Q-wMo99p0fWlmq5nX4fM-12" value="&lt;div&gt;Thông báo lịch thi (MB3)&lt;/div&gt;" style="edgeLabel;html=1;align=center;verticalAlign=middle;resizable=0;points=[];rotation=-90;" vertex="1" connectable="0" parent="Q-wMo99p0fWlmq5nX4fM-11">
          <mxGeometry x="0.2729" relative="1" as="geometry">
            <mxPoint x="-1" y="30" as="offset" />
          </mxGeometry>
        </mxCell>
        <mxCell id="Q-wMo99p0fWlmq5nX4fM-13" style="edgeStyle=orthogonalEdgeStyle;rounded=0;orthogonalLoop=1;jettySize=auto;html=1;exitX=0.392;exitY=-0.021;exitDx=0;exitDy=0;entryX=0.93;entryY=1.002;entryDx=0;entryDy=0;entryPerimeter=0;exitPerimeter=0;" edge="1" parent="1" source="Q-wMo99p0fWlmq5nX4fM-3" target="Q-wMo99p0fWlmq5nX4fM-2">
          <mxGeometry relative="1" as="geometry">
            <Array as="points">
              <mxPoint x="529" y="449" />
              <mxPoint x="527" y="449" />
            </Array>
          </mxGeometry>
        </mxCell>
        <mxCell id="Q-wMo99p0fWlmq5nX4fM-14" value="Danh sách lớp (MB1)" style="edgeLabel;html=1;align=center;verticalAlign=middle;resizable=0;points=[];rotation=-90;" vertex="1" connectable="0" parent="Q-wMo99p0fWlmq5nX4fM-13">
          <mxGeometry x="0.3305" y="-4" relative="1" as="geometry">
            <mxPoint x="-6" y="19" as="offset" />
          </mxGeometry>
        </mxCell>
        <mxCell id="Q-wMo99p0fWlmq5nX4fM-3" value="&lt;div align=&quot;center&quot;&gt;BP PHÒNG ĐÀO TẠO&lt;/div&gt;&lt;div align=&quot;center&quot;&gt;&lt;br&gt;&lt;/div&gt;&lt;div align=&quot;center&quot;&gt;&lt;br&gt;&lt;/div&gt;&lt;div align=&quot;left&quot;&gt;- Tiếp nhận danh sách học sinh mới&lt;/div&gt;&lt;div align=&quot;left&quot;&gt;- Lên danh sách lớp học, phân công giáo viên phụ trách&lt;/div&gt;&lt;div align=&quot;left&quot;&gt;- Lập danh sách học sinh ở lớp học&lt;/div&gt;&lt;div align=&quot;left&quot;&gt;- Sắp xếp lịch thi&lt;br&gt;&lt;/div&gt;" style="rounded=0;whiteSpace=wrap;html=1;" vertex="1" parent="1">
          <mxGeometry x="450" y="449" width="202" height="142" as="geometry" />
        </mxCell>
        <mxCell id="Q-wMo99p0fWlmq5nX4fM-4" value="" style="endArrow=none;html=1;exitX=0;exitY=0.25;exitDx=0;exitDy=0;entryX=1;entryY=0.25;entryDx=0;entryDy=0;" edge="1" parent="1" source="Q-wMo99p0fWlmq5nX4fM-2" target="Q-wMo99p0fWlmq5nX4fM-2">
          <mxGeometry width="50" height="50" relative="1" as="geometry">
            <mxPoint x="396" y="333" as="sourcePoint" />
            <mxPoint x="446" y="283" as="targetPoint" />
          </mxGeometry>
        </mxCell>
        <mxCell id="Q-wMo99p0fWlmq5nX4fM-5" value="" style="endArrow=none;html=1;exitX=0;exitY=0.25;exitDx=0;exitDy=0;entryX=1;entryY=0.25;entryDx=0;entryDy=0;" edge="1" parent="1">
          <mxGeometry width="50" height="50" relative="1" as="geometry">
            <mxPoint x="450" y="488" as="sourcePoint" />
            <mxPoint x="652" y="488" as="targetPoint" />
          </mxGeometry>
        </mxCell>
        <mxCell id="Q-wMo99p0fWlmq5nX4fM-6" value="&lt;div align=&quot;center&quot;&gt;BP PHÒNG KHẢO THÍ&lt;/div&gt;&lt;div align=&quot;center&quot;&gt;&lt;br&gt;&lt;/div&gt;&lt;div align=&quot;center&quot;&gt;&lt;br&gt;&lt;/div&gt;&lt;div align=&quot;left&quot;&gt;- Theo dõi việc thi cử và kết quả thi&lt;/div&gt;&lt;div align=&quot;left&quot;&gt;- Sửa điểm khi có yêu cầu&lt;/div&gt;&lt;div align=&quot;left&quot;&gt;- Kiểm duyệt chất lượng đề thi&lt;/div&gt;&lt;div align=&quot;left&quot;&gt;&lt;br&gt;&lt;/div&gt;&lt;div align=&quot;left&quot;&gt;&lt;br&gt;&lt;/div&gt;" style="rounded=0;whiteSpace=wrap;html=1;" vertex="1" parent="1">
          <mxGeometry x="220" y="447" width="202" height="142" as="geometry" />
        </mxCell>
        <mxCell id="Q-wMo99p0fWlmq5nX4fM-7" value="" style="endArrow=none;html=1;exitX=0;exitY=0.25;exitDx=0;exitDy=0;entryX=1;entryY=0.25;entryDx=0;entryDy=0;" edge="1" parent="1">
          <mxGeometry width="50" height="50" relative="1" as="geometry">
            <mxPoint x="220" y="482" as="sourcePoint" />
            <mxPoint x="422" y="482" as="targetPoint" />
          </mxGeometry>
        </mxCell>
      </root>
    </mxGraphModel>
  </diagram>
</mxfile>
